<svg xmlns="http://www.w3.org/2000/svg" xmlns:xlink="http://www.w3.org/1999/xlink" width="721" height="546" viewBox="0 0 721 546">
  <defs>
    <path id="home-header-isagebrum-a" d="M34.4945978,29.2933887 C36.1982213,38.7592411 33.3895093,42.7173899 29.8341068,47.729052 L29.8341068,47.729052 C26.1032831,52.987421 21.4595458,59.5318844 21.0998335,74.5629288 L21.0998335,74.5629288 C20.3715394,105.025136 8.73690133,150.020703 0,156.16472 L0,156.16472 L0.925068211,157.480051 C10.6487966,150.641905 22.0291723,102.986109 22.7078623,74.6013638 L22.7078623,74.6013638 C23.0557483,60.0611048 27.3538991,54.0038134 31.1454961,48.6593763 L31.1454961,48.6593763 C34.770213,43.5504769 37.9005308,39.1383351 36.0770032,29.0082469 L36.0770032,29.0082469 C32.5925577,9.64817236 41.7542152,1.29102204 41.8478389,1.20922446 L41.8478389,1.20922446 L40.7870984,0 C40.379096,0.357084214 30.8373591,8.97638099 34.4945978,29.2933887"/>
    <linearGradient id="home-header-isagebrum-c" x1="50%" x2="50%" y1="0%" y2="100%">
      <stop offset="0%" stop-color="#2DD14D"/>
      <stop offset="100%" stop-color="#24564C"/>
    </linearGradient>
    <linearGradient id="home-header-isagebrum-d" x1="50%" x2="50%" y1="0%" y2="100%">
      <stop offset="0%" stop-color="#2DD14D"/>
      <stop offset="100%" stop-color="#24564C"/>
    </linearGradient>
    <linearGradient id="home-header-isagebrum-e" x1="50%" x2="50%" y1="0%" y2="100%">
      <stop offset="0%" stop-color="#2DD14D"/>
      <stop offset="100%" stop-color="#24564C"/>
    </linearGradient>
    <path id="home-header-isagebrum-f" d="M74.1916412,0.414900977 C68.0686489,3.08235619 62.9495658,18.6633169 62.3930794,20.4089889 L62.3930794,20.4089889 C57.0391158,27.3946336 50.8927996,26.9449112 45.466565,26.5480779 L45.466565,26.5480779 C41.8756841,26.2852745 38.7742747,26.058278 36.6688904,28.1544642 L36.6688904,28.1544642 C34.7317003,30.0844271 34.0231164,33.7889705 34.4399884,39.8134116 L34.4399884,39.8134116 C35.7996679,59.463884 25.2760315,63.3155973 15.9915134,66.7136462 L15.9915134,66.7136462 C10.6122549,68.6823726 5.53127833,70.5417072 3.72056243,75.3129042 L3.72056243,75.3129042 C1.88849374,80.1402754 3.71563486,87.3604722 9.47135934,98.0342351 L9.47135934,98.0342351 C22.0024858,121.27526 15.4734621,126.424237 8.56041682,131.875109 L8.56041682,131.875109 C2.38814884,136.742558 -3.99370491,141.775573 3.16210506,158.99577 L3.16210506,158.99577 C9.89808647,175.205817 9.57943727,192.829746 9.34652769,205.697589 L9.34652769,205.697589 C9.16190826,215.881224 9.04036165,222.608993 12.400304,224.282394 L12.400304,224.282394 C12.8983166,224.530086 13.4465903,224.655903 14.0559659,224.655903 L14.0559659,224.655903 C16.0700259,224.655903 18.7443797,223.281769 22.4183722,220.4021 L22.4183722,220.4021 L22.5724408,220.281211 L22.6539099,220.103161 C22.8503555,219.672164 42.5451759,176.844396 62.4873602,163.724262 L62.4873602,163.724262 C74.5487254,155.788582 68.8202668,146.643679 63.2800411,137.799685 L63.2800411,137.799685 C58.8636288,130.749653 54.2964331,123.459157 56.9740719,115.813218 L56.9740719,115.813218 C60.3024778,106.306303 65.2819466,100.477322 69.6753636,95.3345865 L69.6753636,95.3345865 C77.3433118,86.358534 82.8845229,79.8725444 72.394394,61.3403007 L72.394394,61.3403007 C64.4603572,47.3236777 72.1099092,35.5454832 78.8590308,25.153577 L78.8590308,25.153577 C83.1538965,18.5411133 86.8623819,12.8297369 85.4373301,7.76682803 L85.4373301,7.76682803 C84.6183688,4.8556226 82.1650984,2.45786945 77.9379046,0.435925254 L77.9379046,0.435925254 C77.3308286,0.145198917 76.7083129,0 76.074628,0 L76.074628,0 C75.4560544,0 74.8269686,0.13862883 74.1916412,0.414900977 M63.758672,21.2699988 L63.8427691,21.1583073 L63.8844891,21.0249345 C63.9367213,20.8583828 69.1530417,4.36385161 74.8345242,1.88955694 L74.8345242,1.88955694 C75.6850219,1.51900405 76.4737608,1.51801854 77.244432,1.8866004 L77.244432,1.8866004 C81.0294589,3.6969878 83.2028436,5.76295157 83.8894177,8.20242478 L83.8894177,8.20242478 C85.1173669,12.5649624 81.5921869,17.992511 77.510192,24.277456 L77.510192,24.277456 C70.8586362,34.5198927 62.5799984,47.2668464 70.994637,62.1326532 L70.994637,62.1326532 C80.9295936,79.6846399 75.9658931,85.4952246 68.4523419,94.2902712 L68.4523419,94.2902712 C63.9672722,99.540099 58.8843246,105.490627 55.4557249,115.281698 L55.4557249,115.281698 C52.5228381,123.657573 57.5138045,131.624789 61.9174052,138.654125 L61.9174052,138.654125 C67.5157761,147.591414 72.3513599,155.309623 61.603355,162.380351 L61.603355,162.380351 C41.7298282,175.455152 22.8677662,215.790228 21.2732061,219.255949 L21.2732061,219.255949 C17.2950186,222.35046 14.5513504,223.557056 13.117429,222.842559 L13.117429,222.842559 C10.6664581,221.622494 10.7935893,214.607612 10.9545564,205.726498 L10.9545564,205.726498 C11.190094,192.71674 11.5126853,174.898994 4.64694466,158.378511 L4.64694466,158.378511 C-2.04140363,142.284098 3.59178873,137.841405 9.55644196,133.138208 L9.55644196,133.138208 C16.6866286,127.515528 24.0595799,121.701002 10.8868845,97.271448 L10.8868845,97.271448 C5.36899719,87.038538 3.57010744,80.2421117 5.22412677,75.8831877 L5.22412677,75.8831877 C6.77401023,71.7998788 11.302114,70.1422459 16.5440577,68.2234521 L16.5440577,68.2234521 C25.8748949,64.808978 37.4871947,60.5587889 36.0444036,39.7020486 L36.0444036,39.7020486 C35.6672806,34.2531472 36.2428202,30.8488567 37.8038728,29.2940457 L37.8038728,29.2940457 C39.3892348,27.7159109 42.018912,27.9080859 45.3492889,28.1521646 L45.3492889,28.1521646 C46.6452386,28.2471024 48.0147731,28.3476247 49.4279988,28.3476247 L49.4279988,28.3476247 C54.0917749,28.3472962 59.2295827,27.2543623 63.758672,21.2699988"/>
    <linearGradient id="home-header-isagebrum-g" x1="50%" x2="50%" y1="0%" y2="100%">
      <stop offset="0%" stop-color="#2DD14D"/>
      <stop offset="100%" stop-color="#24564C"/>
    </linearGradient>
    <path id="home-header-isagebrum-h" d="M11.6248899,0.407345377 C-0.101729416,4.42790995 14.3051568,20.2417802 1.97573201,46.2205601 L1.97573201,46.2205601 C-10.3536927,72.1990116 39.6062323,84.9712602 25.8060936,97.8371325 L25.8060936,97.8371325 C12.0066119,110.702676 14.2808474,116.221878 28.2183009,120.95464 L28.2183009,120.95464 C42.1560829,125.687073 36.2837394,165.515267 49.6854023,174.119124 L49.6854023,174.119124 C63.0867367,182.72331 51.8292216,148.897219 64.1589749,117.26915 L64.1589749,117.26915 C76.4883996,85.6417375 35.2118297,109.764468 53.4375788,73.5205845 L53.4375788,73.5205845 C71.6639849,37.2767011 28.2422817,45.4367488 23.9539861,30.9631762 L23.9539861,30.9631762 C20.006021,17.6377263 21.4803485,0 13.8189703,0 L13.8189703,0 C13.1586766,0 12.430054,0.13107323 11.6248899,0.407345377"/>
    <linearGradient id="home-header-isagebrum-i" x1="50%" x2="50%" y1="0%" y2="100%">
      <stop offset="0%" stop-color="#2DD14D"/>
      <stop offset="100%" stop-color="#24564C"/>
    </linearGradient>
    <polygon id="home-header-isagebrum-k" points="0 0 14.491 54.976 46.874 54.976 61.365 0"/>
    <linearGradient id="home-header-isagebrum-l" x1="50%" x2="50%" y1="0%" y2="100%">
      <stop offset="0%" stop-color="#9FD3A9"/>
      <stop offset="100%" stop-color="#8EBEB4"/>
    </linearGradient>
    <path id="home-header-isagebrum-n" d="M9.3366548e-15,0 L14.4906548,54.9761862 L29.4638824,54.9761862 C29.4638824,5.98961957 61.3649386,0 61.3649386,0 L61.3649386,0 L9.3366548e-15,0 Z"/>
    <linearGradient id="home-header-isagebrum-o" x1="50%" x2="50%" y1="0%" y2="100%">
      <stop offset="0%" stop-color="#C0E8C8"/>
      <stop offset="100%" stop-color="#A5CEC6"/>
    </linearGradient>
    <path id="home-header-isagebrum-q" d="M154.00119,0 C164.645716,0 173.27454,8.62915191 173.27454,19.2730209 L173.27454,154.000862 C173.27454,164.645388 164.645716,173.274211 154.00119,173.274211 L19.2733494,173.274211 C8.62915191,173.274211 3.73466192e-14,164.645388 3.73466192e-14,154.000862 L3.73466192e-14,19.2730209 C3.73466192e-14,8.62915191 8.62915191,0 19.2733494,0"/>
    <linearGradient id="home-header-isagebrum-r" x1="57.142%" x2="49.333%" y1="179.454%" y2="37.916%">
      <stop offset="0%" stop-color="#DFD1D5"/>
      <stop offset="100%" stop-color="#FFEBF4"/>
    </linearGradient>
    <path id="home-header-isagebrum-t" d="M111.459879,0 C120.210577,0 127.304628,7.09405115 127.304628,15.8447497 L127.304628,98.8091768 C127.304628,107.560204 120.210577,114.653926 111.459879,114.653926 L15.8447497,114.653926 C7.09372264,114.653926 7.46932384e-14,107.560204 7.46932384e-14,98.8091768 L7.46932384e-14,15.8447497 C7.46932384e-14,7.09405115 7.09372264,0 15.8447497,0"/>
    <linearGradient id="home-header-isagebrum-u" x1="50%" x2="50%" y1="114.682%" y2="24.283%">
      <stop offset="0%" stop-color="#7CD4BC"/>
      <stop offset="100%" stop-color="#ACF5E1"/>
    </linearGradient>
  </defs>
  <g fill="none" fill-rule="evenodd" transform="translate(4)">
    <g transform="translate(1)">
      <path fill="#F8EED3" d="M627.295423,424.769006 L435.559596,424.769006 C423.019929,424.769006 412.855019,414.603768 412.855019,402.0641 L412.855019,169.11839 C412.855019,156.579051 423.019929,146.413813 435.559596,146.413813 L627.295423,146.413813 C639.834762,146.413813 650,156.579051 650,169.11839 L650,402.0641 C650,414.603768 639.834762,424.769006 627.295423,424.769006"/>
      <polygon fill="#161D36" points="520.379 314.109 539.188 314.109 539.188 310.626 520.379 310.626"/>
      <polygon fill="#1E2630" points="448.971 349.29 558.417 349.29 558.417 342.546 448.971 342.546"/>
      <polygon fill="#1E2630" points="448.971 381.67 537.474 381.67 537.474 374.926 448.971 374.926"/>
      <polygon fill="#1E2630" points="448.971 365.48 500.855 365.48 500.855 358.736 448.971 358.736"/>
      <path fill="#1E2630" d="M454.261874,293.52607 L450.855612,293.52607 L450.855612,315.761872 L474.31772,315.761872 L474.31772,312.355282 L454.261874,312.355282 L454.261874,293.52607 Z M607.105415,293.52607 L607.105415,312.355282 L587.049568,312.355282 L587.049568,315.761872 L610.511348,315.761872 L610.511348,293.52607 L607.105415,293.52607 Z M450.855612,196.401464 L454.261874,196.401464 L454.261874,177.578494 L474.31772,177.578494 L474.31772,174.172561 L450.855612,174.172561 L450.855612,196.401464 Z M587.049568,174.172561 L587.049568,177.578494 L607.105415,177.578494 L607.105415,196.401464 L610.511348,196.401464 L610.511348,174.172561 L587.049568,174.172561 Z"/>
      <g fill="#1E2630" transform="translate(579.836 342.05)">
        <path d="M20.0574893,3.88193574 C11.138268,3.88193574 3.88193574,11.1379395 3.88193574,20.0571608 C3.88193574,28.976382 11.138268,36.2327143 20.0574893,36.2327143 C28.976382,36.2327143 36.2327143,28.976382 36.2327143,20.0571608 C36.2327143,11.1379395 28.976382,3.88193574 20.0574893,3.88193574 M20.0574893,40.11465 C8.99773377,40.11465 0,31.1165878 0,20.0571608 C0,8.99740527 8.99773377,0 20.0574893,0 C31.1169163,0 40.1149785,8.99740527 40.1149785,20.0571608 C40.1149785,31.1165878 31.1169163,40.11465 20.0574893,40.11465"/>
        <polygon points="18.778 27.952 9.666 18.839 12.411 16.094 18.778 22.461 27.704 13.536 30.449 16.28"/>
      </g>
      <g transform="translate(66.744 336.704)">
        <mask id="home-header-isagebrum-b" fill="#fff">
          <use xlink:href="#home-header-isagebrum-a"/>
        </mask>
        <path d="M34.4945978,29.2933887 C36.1982213,38.7592411 33.3895093,42.7173899 29.8341068,47.729052 L29.8341068,47.729052 C26.1032831,52.987421 21.4595458,59.5318844 21.0998335,74.5629288 L21.0998335,74.5629288 C20.3715394,105.025136 8.73690133,150.020703 0,156.16472 L0,156.16472 L0.925068211,157.480051 C10.6487966,150.641905 22.0291723,102.986109 22.7078623,74.6013638 L22.7078623,74.6013638 C23.0557483,60.0611048 27.3538991,54.0038134 31.1454961,48.6593763 L31.1454961,48.6593763 C34.770213,43.5504769 37.9005308,39.1383351 36.0770032,29.0082469 L36.0770032,29.0082469 C32.5925577,9.64817236 41.7542152,1.29102204 41.8478389,1.20922446 L41.8478389,1.20922446 L40.7870984,0 C40.379096,0.357084214 30.8373591,8.97638099 34.4945978,29.2933887" mask="url(#home-header-isagebrum-b)"/>
      </g>
      <path fill="url(#home-header-isagebrum-c)" d="M1.58371941,1.8031603 C0.755888478,2.58795716 0.00394205204,3.81590637 0,5.68641006 L0,5.68641006 L0,5.71696097 C0.00295653903,7.01980917 0.367924857,8.63243695 1.31993042,10.6221877 L1.31993042,10.6221877 C3.44962404,15.074407 6.21234551,17.8936312 8.43237781,20.1589971 L8.43237781,20.1589971 C11.4191392,23.2068603 13.3921363,25.2202634 12.3652317,29.2329439 L12.3652317,29.2329439 C12.1241095,30.1754228 11.8455379,31.1264429 11.5669662,32.0810765 L11.5669662,32.0810765 C9.57163085,38.9041116 7.31086401,46.6384177 18.9885362,51.8866029 L18.9885362,51.8866029 C21.4671014,53.0002326 23.7249117,53.8862088 25.7172905,54.6683777 L25.7172905,54.6683777 C33.8691256,57.8673529 38.789792,59.7983014 44.3444719,71.5239352 L44.3444719,71.5239352 C45.4196666,73.7935716 46.3690441,75.9456035 47.2875422,78.02635 L47.2875422,78.02635 C51.6668335,87.9521085 54.9791428,95.4587611 64.0307512,95.4587611 L64.0307512,95.4587611 C65.2849808,95.4587611 66.6492593,95.3148762 68.1423115,95.0129807 L68.1423115,95.0129807 C71.889889,94.2554497 74.3471014,92.2778536 75.4462769,89.1357096 L75.4462769,89.1357096 C78.067413,81.6398977 71.9940249,69.4615849 67.0648173,63.5915409 L67.0648173,63.5915409 C66.9826912,63.4933181 58.7319763,53.410206 59.6123679,39.433332 L59.6123679,39.433332 C59.7598664,37.0910961 60.0026311,34.9223105 60.2171444,33.0091012 L60.2171444,33.0091012 C60.8373606,27.4784022 61.2847835,23.4818185 58.9093686,20.8123922 L58.9093686,20.8123922 C56.8158105,18.4599727 52.7738931,17.4416092 45.3953572,17.4067878 L45.3953572,17.4067878 C32.4539289,17.346343 27.3374739,11.9884373 23.2259136,7.68305942 L23.2259136,7.68305942 C21.479913,5.85493279 19.8308213,4.12798549 17.8266163,3.03406605 L17.8266163,3.03406605 C14.1578799,1.03084661 10.3666113,0 7.23333698,0 L7.23333698,0 C4.85825063,0 2.86127277,0.592621823 1.58371941,1.8031603 M48.7585846,77.3772254 C47.8361445,75.2862953 46.8824964,73.1250653 45.7981036,70.8357186 L45.7981036,70.8357186 C39.9704366,58.5342167 34.5336899,56.400581 26.3046562,53.1713834 L26.3046562,53.1713834 C24.3293597,52.3961132 22.0906026,51.5173641 19.6478444,50.4195026 L19.6478444,50.4195026 C9.24739707,45.7455429 11.1238138,39.3275536 13.1106081,32.5321129 L13.1106081,32.5321129 C13.3947643,31.5600686 13.6776066,30.5909808 13.9233278,29.6317482 L13.9233278,29.6317482 C15.1746008,24.7413041 12.7065477,22.2226614 9.58082897,19.0332127 L9.58082897,19.0332127 C7.3332023,16.7395955 4.78499416,14.1398122 2.77060557,9.92805806 L2.77060557,9.92805806 C1.71446413,7.72050891 0.843270632,4.72093582 2.69045052,2.97066471 L2.69045052,2.97066471 C5.1210541,0.666535299 11.2969356,1.30120568 17.0559451,4.44499218 L17.0559451,4.44499218 C18.8403807,5.41933604 20.3337614,6.98334518 22.0630082,8.79373258 L22.0630082,8.79373258 C26.3848113,13.3192083 31.7630843,18.9510867 45.3878016,19.0148165 L45.3878016,19.0148165 C52.1724017,19.0470099 55.9722114,19.9313436 57.7080283,21.8820024 L57.7080283,21.8820024 C59.6067833,24.014981 59.1922109,27.7126258 58.6186423,32.8303949 L58.6186423,32.8303949 C58.4024864,34.7613434 58.1570937,36.9504963 58.0072957,39.3321527 L58.0072957,39.3321527 C57.0855126,53.9689919 65.4738708,64.1959889 65.831612,64.6240301 L65.831612,64.6240301 C70.7108869,70.4339578 76.2376439,81.9989529 73.9279299,88.6051751 L73.9279299,88.6051751 C73.029799,91.174079 70.9759899,92.7995185 67.8233338,93.4368169 L67.8233338,93.4368169 C66.4357315,93.7173596 65.1762459,93.8527034 64.0222101,93.8527034 L64.0222101,93.8527034 C56.0287141,93.8527034 53.1546297,87.3401049 48.7585846,77.3772254" transform="translate(0 402.258)"/>
      <path fill="url(#home-header-isagebrum-d)" d="M2.3341637e-15,1.5833909 C0.136986308,1.60770022 13.7176841,4.11090327 16.2126745,12.8474761 L16.2126745,12.8474761 C18.6304664,21.3127043 23.7025734,33.9220148 39.7697205,45.6331944 L39.7697205,45.6331944 C53.4368149,55.5957454 55.4764983,91.5383904 55.4958801,91.9000736 L55.4958801,91.9000736 L57.1012808,91.815648 C57.0224397,90.3071561 54.9965535,54.7426196 40.7167985,44.3339597 L40.7167985,44.3339597 C25.0504267,32.914492 20.1116925,20.6432125 17.7589444,12.4053093 L17.7589444,12.4053093 C14.9870248,2.69932013 0.879077604,0.105449892 0.279885695,0 L0.279885695,0 L2.3341637e-15,1.5833909 Z" transform="translate(12.473 415.1)"/>
      <g transform="translate(52.85 290.716)">
        <use fill="url(#home-header-isagebrum-e)" xlink:href="#home-header-isagebrum-f"/>
        <path fill="url(#home-header-isagebrum-e)" d="M74.1916412,0.414900977 C68.0686489,3.08235619 62.9495658,18.6633169 62.3930794,20.4089889 L62.3930794,20.4089889 C57.0391158,27.3946336 50.8927996,26.9449112 45.466565,26.5480779 L45.466565,26.5480779 C41.8756841,26.2852745 38.7742747,26.058278 36.6688904,28.1544642 L36.6688904,28.1544642 C34.7317003,30.0844271 34.0231164,33.7889705 34.4399884,39.8134116 L34.4399884,39.8134116 C35.7996679,59.463884 25.2760315,63.3155973 15.9915134,66.7136462 L15.9915134,66.7136462 C10.6122549,68.6823726 5.53127833,70.5417072 3.72056243,75.3129042 L3.72056243,75.3129042 C1.88849374,80.1402754 3.71563486,87.3604722 9.47135934,98.0342351 L9.47135934,98.0342351 C22.0024858,121.27526 15.4734621,126.424237 8.56041682,131.875109 L8.56041682,131.875109 C2.38814884,136.742558 -3.99370491,141.775573 3.16210506,158.99577 L3.16210506,158.99577 C9.89808647,175.205817 9.57943727,192.829746 9.34652769,205.697589 L9.34652769,205.697589 C9.16190826,215.881224 9.04036165,222.608993 12.400304,224.282394 L12.400304,224.282394 C12.8983166,224.530086 13.4465903,224.655903 14.0559659,224.655903 L14.0559659,224.655903 C16.0700259,224.655903 18.7443797,223.281769 22.4183722,220.4021 L22.4183722,220.4021 L22.5724408,220.281211 L22.6539099,220.103161 C22.8503555,219.672164 42.5451759,176.844396 62.4873602,163.724262 L62.4873602,163.724262 C74.5487254,155.788582 68.8202668,146.643679 63.2800411,137.799685 L63.2800411,137.799685 C58.8636288,130.749653 54.2964331,123.459157 56.9740719,115.813218 L56.9740719,115.813218 C60.3024778,106.306303 65.2819466,100.477322 69.6753636,95.3345865 L69.6753636,95.3345865 C77.3433118,86.358534 82.8845229,79.8725444 72.394394,61.3403007 L72.394394,61.3403007 C64.4603572,47.3236777 72.1099092,35.5454832 78.8590308,25.153577 L78.8590308,25.153577 C83.1538965,18.5411133 86.8623819,12.8297369 85.4373301,7.76682803 L85.4373301,7.76682803 C84.6183688,4.8556226 82.1650984,2.45786945 77.9379046,0.435925254 L77.9379046,0.435925254 C77.3308286,0.145198917 76.7083129,0 76.074628,0 L76.074628,0 C75.4560544,0 74.8269686,0.13862883 74.1916412,0.414900977 M63.758672,21.2699988 L63.8427691,21.1583073 L63.8844891,21.0249345 C63.9367213,20.8583828 69.1530417,4.36385161 74.8345242,1.88955694 L74.8345242,1.88955694 C75.6850219,1.51900405 76.4737608,1.51801854 77.244432,1.8866004 L77.244432,1.8866004 C81.0294589,3.6969878 83.2028436,5.76295157 83.8894177,8.20242478 L83.8894177,8.20242478 C85.1173669,12.5649624 81.5921869,17.992511 77.510192,24.277456 L77.510192,24.277456 C70.8586362,34.5198927 62.5799984,47.2668464 70.994637,62.1326532 L70.994637,62.1326532 C80.9295936,79.6846399 75.9658931,85.4952246 68.4523419,94.2902712 L68.4523419,94.2902712 C63.9672722,99.540099 58.8843246,105.490627 55.4557249,115.281698 L55.4557249,115.281698 C52.5228381,123.657573 57.5138045,131.624789 61.9174052,138.654125 L61.9174052,138.654125 C67.5157761,147.591414 72.3513599,155.309623 61.603355,162.380351 L61.603355,162.380351 C41.7298282,175.455152 22.8677662,215.790228 21.2732061,219.255949 L21.2732061,219.255949 C17.2950186,222.35046 14.5513504,223.557056 13.117429,222.842559 L13.117429,222.842559 C10.6664581,221.622494 10.7935893,214.607612 10.9545564,205.726498 L10.9545564,205.726498 C11.190094,192.71674 11.5126853,174.898994 4.64694466,158.378511 L4.64694466,158.378511 C-2.04140363,142.284098 3.59178873,137.841405 9.55644196,133.138208 L9.55644196,133.138208 C16.6866286,127.515528 24.0595799,121.701002 10.8868845,97.271448 L10.8868845,97.271448 C5.36899719,87.038538 3.57010744,80.2421117 5.22412677,75.8831877 L5.22412677,75.8831877 C6.77401023,71.7998788 11.302114,70.1422459 16.5440577,68.2234521 L16.5440577,68.2234521 C25.8748949,64.808978 37.4871947,60.5587889 36.0444036,39.7020486 L36.0444036,39.7020486 C35.6672806,34.2531472 36.2428202,30.8488567 37.8038728,29.2940457 L37.8038728,29.2940457 C39.3892348,27.7159109 42.018912,27.9080859 45.3492889,28.1521646 L45.3492889,28.1521646 C46.6452386,28.2471024 48.0147731,28.3476247 49.4279988,28.3476247 L49.4279988,28.3476247 C54.0917749,28.3472962 59.2295827,27.2543623 63.758672,21.2699988"/>
        <path fill="url(#home-header-isagebrum-g)" d="M46.360733,0 C45.8966029,0.405880451 35.0513429,10.2033939 39.2083503,33.296386 L39.2083503,33.296386 C41.1447772,44.0553918 37.9526226,48.5551759 33.9109943,54.2513178 L33.9109943,54.2513178 C29.6703464,60.2282529 24.3920335,67.6670296 23.9831659,84.7517215 L23.9831659,84.7517215 C23.155349,119.377021 9.93081552,170.521318 0,177.504926 L0,177.504926 L1.05148054,179 C12.1039749,171.227781 25.0391272,117.059731 25.8109348,84.7957821 L25.8109348,84.7957821 C26.2063602,68.2685691 31.0914881,61.3835372 35.4019608,55.3091461 L35.4019608,55.3091461 C39.5216288,49.5021058 43.0797105,44.4870365 41.0073678,32.9722791 L41.0073678,32.9722791 C37.0463928,10.9669869 47.4600081,1.46744266 47.5664257,1.37446729 L47.5664257,1.37446729 L46.360733,0 Z" transform="translate(12.488 32.976)"/>
      </g>
      <g transform="translate(22.148 327.923)">
        <mask id="home-header-isagebrum-j" fill="#fff">
          <use xlink:href="#home-header-isagebrum-h"/>
        </mask>
        <path fill="url(#home-header-isagebrum-i)" d="M11.6248899,0.407345377 C-0.101729416,4.42790995 14.3051568,20.2417802 1.97573201,46.2205601 L1.97573201,46.2205601 C-10.3536927,72.1990116 39.6062323,84.9712602 25.8060936,97.8371325 L25.8060936,97.8371325 C12.0066119,110.702676 14.2808474,116.221878 28.2183009,120.95464 L28.2183009,120.95464 C42.1560829,125.687073 36.2837394,165.515267 49.6854023,174.119124 L49.6854023,174.119124 C63.0867367,182.72331 51.8292216,148.897219 64.1589749,117.26915 L64.1589749,117.26915 C76.4883996,85.6417375 35.2118297,109.764468 53.4375788,73.5205845 L53.4375788,73.5205845 C71.6639849,37.2767011 28.2422817,45.4367488 23.9539861,30.9631762 L23.9539861,30.9631762 C20.006021,17.6377263 21.4803485,0 13.8189703,0 L13.8189703,0 C13.1586766,0 12.430054,0.13107323 11.6248899,0.407345377" mask="url(#home-header-isagebrum-j)"/>
      </g>
      <path fill="#FFF" d="M67.1618575,499.96378 C68.4384253,494.550029 79.3385277,446.901789 69.1673764,441.141794 C60.2034786,436.065416 60.4242335,416.32132 61.823005,397.676399 C63.0608093,381.172013 41.864067,373.457746 40.9610086,373.137782 L40.423247,374.653173 C40.6328328,374.727743 61.36507,382.279401 60.2189183,397.556167 C58.7830259,416.703699 58.6289573,437.022021 68.3753525,442.541222 C76.0975039,446.914272 68.9880131,485.208679 65.5965343,499.59487 L67.1618575,499.96378 Z"/>
      <g transform="translate(44.09 482.997)">
        <mask id="home-header-isagebrum-m" fill="#fff">
          <use xlink:href="#home-header-isagebrum-k"/>
        </mask>
        <polygon fill="url(#home-header-isagebrum-l)" points="0 0 14.491 54.976 46.874 54.976 61.365 0" mask="url(#home-header-isagebrum-m)"/>
      </g>
      <g transform="translate(44.09 482.997)">
        <mask id="home-header-isagebrum-p" fill="#fff">
          <use xlink:href="#home-header-isagebrum-n"/>
        </mask>
        <path fill="url(#home-header-isagebrum-o)" d="M9.3366548e-15,0 L14.4906548,54.9761862 L29.4638824,54.9761862 C29.4638824,5.98961957 61.3649386,0 61.3649386,0 L61.3649386,0 L9.3366548e-15,0 Z" mask="url(#home-header-isagebrum-p)"/>
      </g>
      <g transform="translate(158.473)">
        <polygon fill="#DB8585" points="132.496 203.28 145.982 203.28 145.982 200.782 132.496 200.782"/>
        <g opacity=".601" transform="translate(52.602 69.655)">
          <g transform="translate(0 16.663)">
            <mask id="home-header-isagebrum-s" fill="#fff">
              <use xlink:href="#home-header-isagebrum-q"/>
            </mask>
            <path fill="url(#home-header-isagebrum-r)" d="M154.00119,173.274211 L19.2733494,173.274211 C8.62915191,173.274211 3.73466192e-14,164.645388 3.73466192e-14,154.000862 L3.73466192e-14,19.2730209 C3.73466192e-14,8.62915191 8.62915191,0 19.2733494,0 L154.00119,0 C164.645716,0 173.27454,8.62915191 173.27454,19.2730209 L173.27454,154.000862 C173.27454,164.645388 164.645716,173.274211 154.00119,173.274211" mask="url(#home-header-isagebrum-s)"/>
          </g>
          <polygon fill="#D1A2A2" points="46.526 154.451 126.749 154.451 126.749 150.488 46.526 150.488"/>
          <polygon fill="#D1A2A2" points="57.888 166.939 115.386 166.939 115.386 162.976 57.888 162.976"/>
          <path fill="#DB8585" d="M31.8403157,120.242544 L29.3978859,120.242544 L29.3978859,136.186502 L46.2209215,136.186502 L46.2209215,133.744072 L31.8403157,133.744072 L31.8403157,120.242544 Z M141.433961,120.242544 L141.433961,133.744072 L127.053684,133.744072 L127.053684,136.186502 L143.876391,136.186502 L143.876391,120.242544 L141.433961,120.242544 Z M29.3978859,50.6009388 L31.8403157,50.6009388 L31.8403157,37.1043381 L46.2209215,37.1043381 L46.2209215,34.6622369 L29.3978859,34.6622369 L29.3978859,50.6009388 Z M127.053684,34.6622369 L127.053684,37.1043381 L141.433961,37.1043381 L141.433961,50.6009388 L143.876391,50.6009388 L143.876391,34.6622369 L127.053684,34.6622369 Z"/>
          <path fill="#EEA886" d="M68.5012682,23.6871369 C68.4546206,23.6871369 68.40863,23.6914075 68.3632964,23.7009341 C68.0781546,23.7600649 67.8587137,24.0182693 67.7108868,24.4679917 C67.1941494,26.0388995 68.6031045,30.3951955 69.1336391,32.0347606 C69.2358039,32.3517673 69.3100459,32.5807348 69.3442103,32.705238 C69.6914394,33.7879883 70.3063995,35.3477269 70.5839857,35.4150703 C70.5905558,35.4167128 70.5964689,35.4180268 70.6086235,35.4058721 C70.8697845,35.052073 70.26895,28.5200927 69.8261262,24.4653637 C69.7111497,24.3421746 69.0708947,23.6871369 68.5012682,23.6871369 M70.5905558,35.5885205 C70.5751161,35.5885205 70.5593479,35.5865495 70.5432512,35.5826075 C70.0708619,35.4679595 69.3241716,33.2065356 69.1789726,32.7545136 C69.1448082,32.630339 69.0712232,32.4026855 68.9697154,32.0879783 C68.3839922,30.2775909 67.0128151,26.0382425 67.5472916,24.414117 C67.7154858,23.9013218 67.9786178,23.6046824 68.3288034,23.5320829 C69.0794358,23.3773573 69.9371607,24.3300199 69.9732961,24.370426 L69.9913639,24.3911217 L69.9946489,24.4183876 C70.189452,26.2018376 71.1408005,35.1187593 70.7304986,35.5280757 C70.6904211,35.5678248 70.642131,35.5885205 70.5905558,35.5885205"/>
          <path fill="#16202E" d="M86.1327201,0.0383725628 C86.1327201,0.0383725628 97.6412125,-1.16789536 101.787594,9.94606335 C105.933647,21.0600221 109.838907,24.6982076 110.327721,30.5370437 C112.304661,54.1519064 123.332223,48.8104259 120.230813,62.4226601 C117.129075,76.0352228 114.981642,78.0942879 114.981642,78.0942879 L88.6168699,72.9252722 L61.9088103,73.0113403 C61.9088103,73.0113403 72.3575478,67.793049 70.0314086,56.6790903 C67.7052693,45.5651315 61.9088103,27.3492376 65.1826845,14.9429428 C68.4562303,2.53664804 79.2548248,0.986107573 86.1327201,0.0383725628"/>
          <path fill="#EEA886" d="M100.952306,24.4654294 C100.509811,28.5201584 99.9089765,35.0521387 100.17178,35.4079089 C100.182292,35.4180925 100.188205,35.4167785 100.194775,35.415136 C100.472361,35.3477926 101.087322,33.7877255 101.435536,32.7016901 C101.468715,32.5808005 101.542957,32.351833 101.645122,32.0348263 C102.175985,30.3952612 103.58494,26.0389652 103.067874,24.4680574 C102.919719,24.018335 102.700278,23.7601306 102.415465,23.7006713 C101.816273,23.5774822 101.077138,24.3320567 100.952306,24.4654294 M100.187877,35.5882577 C100.13663,35.5882577 100.08834,35.5678905 100.048262,35.5281414 C99.6379604,35.118825 100.589637,26.2019033 100.784112,24.4184533 L100.787069,24.3908589 L100.805465,24.3704917 C100.8416,24.3297571 101.699325,23.375452 102.450286,23.5321486 C102.800143,23.6047481 103.062947,23.9013875 103.231469,24.4141827 C103.765946,26.0383082 102.395097,30.2776566 101.809046,32.088044 C101.707538,32.4027512 101.633953,32.6300762 101.600774,32.7509658 C101.454589,33.2062728 100.707571,35.4680252 100.23551,35.5826732 C100.219742,35.5866152 100.203973,35.5882577 100.187877,35.5882577"/>
          <path fill="#E65353" d="M140.244513,106.216624 L123.815682,106.216624 C120.409093,100.008221 117.641443,95.1519413 117.641443,95.1519413 C117.641443,95.1519413 115.427324,99.1922161 113.709904,106.216624 L58.4035705,106.216624 C57.5589859,101.834048 57.5077392,97.6341201 57.6844745,94.6440736 C57.6844745,94.6440736 54.7285925,99.9852256 51.2990072,106.216624 L32.7191305,106.216624 C37.6493235,96.9836815 46.887851,80.1728006 48.9879792,77.9813482 C51.6242265,75.2196122 66.9062482,64.6568838 77.8168628,61.2105448 C88.7327334,57.7638773 94.9358808,61.0906407 94.9358808,61.0906407 C94.9358808,61.0906407 106.143135,63.1106139 116.505804,67.2195461 C120.580243,68.8341449 131.833488,89.6169717 140.244513,106.216624"/>
          <path fill="#8E4F3A" d="M87.650443,6.53868497 C87.650443,6.53868497 102.892059,8.7380215 100.660857,31.238269 C98.4296558,53.738188 84.9777317,51.9524385 84.0792723,51.9333852 C83.180813,51.914332 70.5839857,52.4011754 69.4943368,24.946097 C69.4943368,24.946097 68.9864691,4.64321495 87.650443,6.53868497"/>
          <path fill="#8E4F3A" d="M94.4223299,47.9422546 C94.4223299,47.9422546 93.4788655,59.6458786 95.7330622,63.1526624 C97.9875875,66.6591177 93.8050703,71.4178315 85.18873,69.7900925 C76.5720613,68.162025 77.0730304,63.2778226 77.0730304,63.2778226 C77.0730304,63.2778226 79.4855663,56.0553262 78.7802674,50.2739784 C78.0749686,44.4923021 94.4223299,47.9422546 94.4223299,47.9422546"/>
          <path fill="#16202E" d="M85.9072019,14.6930496 C85.9072019,14.6930496 93.0288474,22.1799919 96.3365575,25.9709319 C99.6442677,29.7615435 100.025004,37.0848906 100.025004,37.0848906 C100.025004,37.0848906 105.597095,30.2786093 103.267014,22.3521282 C100.936932,14.426304 95.422987,-0.995660537 81.4658232,3.74301452 C67.5086595,8.48136106 66.9919222,29.3308743 68.6288593,39.6692343 C68.6288593,39.6692343 74.894094,16.846724 85.9072019,14.6930496"/>
          <path fill="#8E4F3A" d="M99.7736656,62.1194177 C99.7736656,62.1194177 89.20371,88.8912071 82.7791507,93.5434855 C82.7791507,93.5434855 74.3402028,66.2388621 74.9298681,62.2412928 C74.9298681,62.2412928 87.6600682,57.2529545 99.7736656,62.1194177"/>
          <path fill="#16202E" d="M77.4366519,55.64509 C77.4366519,55.64509 58.5936431,72.4106373 63.4837587,82.8698869 C67.6574063,91.7969922 82.4558696,86.322139 80.0150824,76.968635 C77.5736382,67.615131 77.4366519,55.64509 77.4366519,55.64509"/>
          <path fill="#633029" d="M79.9007629,50.913872 C79.9007629,50.913872 86.3946366,53.983088 92.715717,49.4493997 C92.715717,49.4493997 90.9601899,53.0747735 86.30824,53.5905253 C81.6562901,54.1062771 79.9007629,50.913872 79.9007629,50.913872"/>
        </g>
        <g opacity=".397" transform="translate(242.897)">
          <g transform="translate(0 22.152)">
            <mask id="home-header-isagebrum-v" fill="#fff">
              <use xlink:href="#home-header-isagebrum-t"/>
            </mask>
            <path fill="url(#home-header-isagebrum-u)" d="M111.459879,114.653926 L15.8447497,114.653926 C7.09372264,114.653926 7.46932384e-14,107.560204 7.46932384e-14,98.8091768 L7.46932384e-14,15.8447497 C7.46932384e-14,7.09405115 7.09372264,0 15.8447497,0 L111.459879,0 C120.210577,0 127.304628,7.09405115 127.304628,15.8447497 L127.304628,98.8091768 C127.304628,107.560204 120.210577,114.653926 111.459879,114.653926" mask="url(#home-header-isagebrum-v)"/>
          </g>
          <path fill="#2ABFAD" d="M22.6272473,106.972038 L20.7991207,106.972038 L20.7991207,118.908572 L33.3936484,118.908572 L33.3936484,117.080117 L22.6272473,117.080117 L22.6272473,106.972038 Z M104.677118,106.972038 L104.677118,117.080117 L93.9107173,117.080117 L93.9107173,118.908572 L106.505574,118.908572 L106.505574,106.972038 L104.677118,106.972038 Z M20.7991207,54.8334727 L22.6272473,54.8334727 L22.6272473,44.7290079 L33.3936484,44.7290079 L33.3936484,42.9002242 L20.7991207,42.9002242 L20.7991207,54.8334727 Z M93.9107173,42.9002242 L93.9107173,44.7290079 L104.677118,44.7290079 L104.677118,54.8334727 L106.505574,54.8334727 L106.505574,42.9002242 L93.9107173,42.9002242 Z"/>
          <polygon fill="#2ABFAD" points="58.121 116.991 68.217 116.991 68.217 115.121 58.121 115.121"/>
          <path fill="#223B37" d="M56.8491208,58.6390641 C56.8491208,58.6390641 50.5999828,82.1580035 49.2961491,87.4574355 C48.9081855,89.0533096 47.6549415,91.8124175 46.064652,94.959489 C46.0534828,94.9821558 46.0423137,95.0048226 46.0252315,95.0327455 C45.6826014,95.7239186 45.5196633,96.3533329 45.4404937,96.9436552 C45.1878739,98.9048261 45.9411343,100.450111 44.6369721,102.776578 L44.401106,103.754536 L32.0319322,103.754536 C33.4763658,99.466897 35.3084345,94.0101115 36.7752064,89.6153805 C38.0057836,85.906238 38.9781564,82.9556121 39.2366893,82.1015008 C40.0007904,79.5503361 42.805232,71.2891091 45.1878739,65.8044007 C46.0196469,63.8934909 49.2228927,62.005248 52.0608416,60.6396555 C54.6008372,59.4314165 56.8491208,58.6390641 56.8491208,58.6390641"/>
          <path fill="#FCCCA2" d="M48.5739324,25.0440425 C48.5739324,25.0440425 44.6305663,-0.463990717 65.7570087,0.00642749241 C86.8831226,0.477174207 86.6009373,13.0900982 86.2241429,25.6087415 C85.8476769,38.1277132 77.7530015,37.1862198 86.8831226,54.5995777 C96.0132436,72.0129355 78.9766802,72.0129355 78.9766802,72.0129355 L65.7570087,53.8466457 L48.5739324,25.0440425 Z"/>
          <path fill="#EEA886" d="M63.4458164,2.4539162 C63.4458164,2.4539162 49.1384671,4.71304052 48.5740966,25.0441739 C48.0090691,45.3753073 52.433037,49.7049944 64.9520088,45.4692595 C77.4703235,41.2338531 81.4238732,19.9612263 81.706387,16.6669848 C81.9885722,13.3724148 82.7415041,0.00655889415 63.4458164,2.4539162"/>
          <path fill="#2AD4AC" d="M88.5727923,73.171866 C88.6231443,80.1683513 80.5813582,96.9040047 79.3396118,102.074334 C79.1930988,102.675826 79.0360738,103.231984 78.8783917,103.754634 L39.8323663,103.754634 C39.6300076,101.343741 39.4391466,99.2810621 39.3435518,98.1178283 C39.0341007,94.2966658 35.1623486,86.0636901 35.2914508,82.2307015 C35.4264661,78.3251135 37.3426319,74.953345 40.0235558,70.7833109 C40.8550003,69.4909749 41.7314498,68.175972 42.6026433,66.8948051 C45.4465054,62.7244426 48.2841258,58.9367876 49.6782982,57.6329538 C50.7180145,56.6664941 51.6841457,55.9247313 52.5270878,55.3626604 L52.5330009,55.3574043 C54.2865571,54.1882574 55.4665446,53.8117914 55.4665446,53.8117914 L67.762462,51.8447074 C67.762462,51.8447074 75.4277821,54.6208976 79.8392669,55.6491162 C79.8392669,55.6491162 88.4431239,56.9082733 88.5727923,73.171866"/>
          <path fill="#E55353" d="M52.5352347,55.3569115 L45.4076762,66.5901173 L38.8287198,76.9577142 C38.8441595,76.9018685 39.2823843,75.3322747 40.0254611,70.7861032 C40.1670465,69.9231223 40.3188155,68.9527205 40.4810966,67.8656997 C40.5287298,67.5440939 40.5990297,67.2247877 40.6880544,66.9094235 L40.6880544,66.9087665 C43.5033365,60.4175209 52.2087014,55.5231347 52.5270221,55.3608536 C52.5319497,55.3578971 52.5352347,55.3569115 52.5352347,55.3569115"/>
          <path fill="#EEA886" d="M73.000365,36.3116755 C71.7602612,38.653583 70.4505144,53.1908854 70.4505144,53.1908854 C70.4505144,53.1908854 52.9517454,59.8046632 54.742751,56.0636558 C55.5551423,54.3659454 55.7936364,52.1623383 55.8100616,50.2632547 C55.8258298,48.7656034 55.7026407,47.4571707 55.6159156,46.7318331 C55.5702535,46.349454 55.5351035,46.1293561 55.5351035,46.1293561 C55.5351035,46.1293561 74.2404689,33.9687826 73.000365,36.3116755"/>
          <path fill="#FCCCA2" d="M57.6100683,17.0433194 C57.6100683,17.0433194 64.9521402,28.9972637 71.6345754,33.7037453 C78.3176676,38.4098984 74.9291454,42.1748866 74.9291454,42.1748866 C74.9291454,42.1748866 92.3661556,5.46584106 75.7881842,2.92453151 C59.2102129,0.383221966 49.0446462,0.194660477 48.5738995,25.0440425 C48.5738995,25.0440425 56.1042044,16.8550864 57.6100683,17.0433194"/>
          <path fill="#A77860" d="M65.5936106,45.2345432 C62.9077592,49.196634 55.81108,50.2632876 55.81108,50.2632876 L55.8100945,50.2632876 C55.8258627,48.7656363 55.7026736,47.4572035 55.6159484,46.7318659 C60.1752601,47.6102865 65.5936106,45.2345432 65.5936106,45.2345432"/>
          <path fill="#EBEEFF" d="M40.7180797,66.8322579 L40.7170941,66.8322579 C40.7170941,66.8322579 40.3370146,67.6193543 40.0255925,70.7861361 L42.602709,66.8963162 C42.602709,66.8963162 47.2060403,60.2963356 48.7831896,58.5799004 C50.3606674,56.8637938 52.526825,55.3608865 52.526825,55.3608865 C52.526825,55.3608865 43.470289,59.7125834 40.7180797,66.8322579"/>
          <path fill="#E55353" d="M75.5395393,76.6744121 C75.5395393,76.6744121 86.7707741,72.2694974 90.0939239,72.0129355 C90.0939239,72.0129355 87.8344711,53.9770619 76.80231,55.8886287 C65.7704774,57.8005239 75.5395393,76.6744121 75.5395393,76.6744121"/>
          <path fill="#EEA886" d="M55.4657891,53.810773 C55.4657891,53.810773 47.2203302,66.4897264 50.0113031,67.5971145 C52.8029329,68.7048311 67.9118329,66.1191735 74.3354067,54.0762045 C74.3354067,54.0762045 64.7305969,49.1512675 55.4657891,53.810773"/>
          <path fill="#223B37" d="M90.0954022 72.0140524C89.5224906 81.9555792 86.7012954 91.3852961 84.3744992 100.039743 84.0374537 101.293315 83.7112489 102.535062 83.4080394 103.75447L60.5408526 103.75447C60.4850068 100.326527 60.4958475 97.3029733 60.6029399 94.7797315 61.7550046 67.1870097 70.4994615 52.6766447 70.4994615 52.6766447 70.4994615 52.6766447 73.2924054 53.6148531 81.328607 55.8910596 86.8359822 57.4478417 88.9154146 64.4554962 89.6739311 68.7040427 89.6739311 68.7040427 89.6795157 68.721125 89.6854288 68.7546324 90.0224742 70.6711267 90.0954022 72.0140524 90.0954022 72.0140524M55.4606644 53.817376C55.3709827 53.9747296 53.8651188 56.5035559 52.0606445 60.639754 49.3521263 66.8498 45.9688601 76.6842343 45.6824043 87.5192929 45.5927226 90.9978253 44.9008925 96.6346312 43.8503356 103.754634L39.2870819 103.754634C38.8261903 97.7975365 37.7362129 93.0378372 36.7750092 89.615479 36.151508 87.3954467 35.578268 85.7374853 35.2688169 84.6866 33.8135427 79.7357111 38.4668066 73.1436146 40.0235886 70.7833109 41.5856268 68.4289204 45.3171075 57.5938618 55.4606644 53.817376"/>
          <path fill="#223B37" d="M97.378639,103.754503 L85.0994754,103.754503 C85.0994754,102.956566 84.8241888,101.652732 84.3744663,100.039776 C82.1435934,92.1103381 75.5403277,76.6729338 75.5403277,76.6729338 C75.5403277,76.6729338 65.6605598,60.5272742 75.0232619,56.4137428 C84.3856355,52.299883 88.4150697,63.7978633 89.6738983,68.7040756 C89.6738983,68.7040756 89.6794829,68.7208293 89.6853959,68.7546653 C89.99419,69.9290683 95.5692371,91.1829703 97.378639,103.754503"/>
        </g>
        <path fill="#EEA886" d="M140.013122,333.957432 C140.013122,333.957432 144.304045,333.897315 145.83159,332.243953 C147.359464,330.590591 150.057799,329.109036 150.923079,328.687893 C152.0804,328.124509 155.281675,325.011601 155.683435,326.531591 C156.085525,328.051252 150.586034,331.907236 149.53909,332.948266 C148.492147,333.988968 154.107929,334.442961 154.931817,335.452783 C155.755378,336.462606 152.889835,347.089064 149.147842,346.265503 C145.40552,345.4426 142.341232,341.669071 141.633633,341.676955 C140.926035,341.685168 138.870255,341.204566 138.870255,341.204566 L140.013122,333.957432 Z"/>
        <path fill="#EEA886" d="M154.135917,335.018993 C154.135917,335.018993 165.305393,338.430511 165.765628,339.397299 C166.225862,340.364087 165.914112,341.071357 164.849758,340.803626 C163.785732,340.536552 153.915819,337.878624 153.915819,337.878624 C153.915819,337.878624 166.122712,344.552518 166.6723,345.220367 C166.994234,345.611287 166.458443,347.006774 165.867136,346.925961 C165.276156,346.844821 152.709551,341.080884 152.709551,341.080884 C152.709551,341.080884 164.093541,347.337577 164.37704,348.081311 C164.625061,348.731421 163.862274,349.930134 162.978925,349.537242 C162.095249,349.14468 151.124846,344.072244 151.124846,344.072244 C151.124846,344.072244 159.056584,349.266883 158.933723,350.12198 C158.858496,350.644631 158.442609,351.865353 156.445303,350.445228 C154.447996,349.024776 149.327928,346.296876 149.327928,346.296876 L154.135917,335.018993 Z"/>
        <path fill="#353A3D" d="M116.516717,522.384201 C116.516717,522.384201 120.100043,527.745063 125.126488,528.90337 C130.152604,530.061676 135.103493,531.9036 135.141344,535.075638 C135.179049,538.247018 120.609225,540.139203 114.857442,536.941214 C106.272967,532.169031 105.400131,533.607552 104.448454,531.221953 C103.496777,528.836683 105.591649,522.457457 105.52989,521.698612 C105.453348,520.76139 116.516717,522.384201 116.516717,522.384201"/>
        <path fill="#81807E" d="M115.960133,519.739807 C115.960133,519.739807 116.613856,522.329406 116.516619,522.384267 C116.419382,522.439127 105.190446,523.776797 105.529791,521.698678 C105.805407,520.013451 106.198298,518.182039 106.198298,518.182039 L115.960133,519.739807 Z"/>
        <path fill="#353A3D" d="M46.0028018,522.028431 C46.0028018,522.028431 48.5585655,527.156712 52.9257022,528.90337 C57.5934203,530.770588 61.3373842,532.916707 61.2519731,536.007276 C61.1668904,539.097845 49.8407179,542.229476 41.6008437,536.298002 C36.3947069,532.550425 34.7446297,532.532357 33.9095716,530.172382 C33.0745136,527.812407 35.3599183,521.679888 35.3287104,520.93911 C35.2902754,520.022912 46.0028018,522.028431 46.0028018,522.028431"/>
        <path fill="#81807E" d="M46.1304914,519.365739 C46.1304914,519.365739 46.099612,521.978991 46.0027032,522.028267 C45.9057944,522.078199 35.0526682,522.972388 35.3286118,520.938946 C35.5477242,519.32369 36.3817967,517.372375 36.3817967,517.372375 L46.1304914,519.365739 Z"/>
        <path fill="#2D3133" d="M85.9237985,362.713124 C85.9237985,362.713124 100.178587,417.323685 105.606136,429.948764 C110.63488,441.645818 112.293827,458.004348 112.986643,466.220899 C113.857508,476.554988 119.040978,516.798083 119.650353,519.819338 C120.260057,522.841249 102.881521,521.490768 102.881521,521.490768 C102.881521,521.490768 90.8989967,451.909607 85.9237985,441.755538 C82.6042622,434.979479 63.3410964,386.385804 61.1368323,389.184004 C58.9325682,391.982204 56.1994121,440.671474 54.5670741,448.753995 C52.934736,456.836515 47.9230739,520.699401 47.9230739,520.699401 C47.9230739,520.699401 36.718448,522.352763 33.7257735,519.819338 C33.7257735,519.819338 32.363466,465.288603 33.4035107,450.135355 C33.8000154,444.360906 26.6369784,380.894197 35.8216311,355.343787 C40.6756112,341.840944 85.9237985,362.713124 85.9237985,362.713124"/>
        <path fill="#DECBC4" d="M6.52518735,323.551498 C6.52518735,324.176313 7.70418941,326.674589 9.58717627,330.267769 C12.3400426,324.761708 14.5025867,320.239517 15.2098565,318.5763 C17.5297541,313.096848 29.4850124,300.537141 29.4850124,300.537141 C29.4850124,300.537141 29.4850124,300.546011 29.4902685,300.563422 C29.4902685,300.568678 29.491911,300.574262 29.4935535,300.57919 C29.4955246,300.582804 29.4974956,300.58806 29.4974956,300.592987 C29.5024232,300.610726 29.5076792,300.628137 29.5112928,300.645219 C29.5198339,300.675113 29.528375,300.710263 29.5408582,300.752312 C29.5477568,300.773008 29.5533413,300.795674 29.5582689,300.81867 C29.563525,300.83608 29.568781,300.85152 29.5720661,300.869259 C30.2238187,303.29395 34.2207309,318.452454 34.3672439,325.918372 C34.529525,334.045898 36.650349,349.084169 36.650349,349.084169 L36.6588901,349.085812 L39.1551946,349.43534 L44.6786665,350.214224 L45.3406027,350.306862 L46.9476459,350.532216 L61.5946688,352.593253 L66.7893079,353.323518 L67.4916501,353.423383 L70.4610008,353.840584 L78.6604691,354.993634 L80.7513992,355.28666 L80.7707809,355.290273 L82.3357756,355.5107 L84.5019332,355.814566 L84.5035757,355.812924 C84.563035,355.73244 86.610274,352.930627 86.2939243,346.706783 C86.0932082,342.689175 85.6093213,335.139489 85.810366,328.136433 C85.810366,328.099969 85.813651,328.063177 85.813651,328.028355 C85.813651,327.939002 85.8189071,327.851948 85.8208781,327.762595 C85.8244916,327.731387 85.8244916,327.703465 85.8258057,327.673899 L85.8258057,327.657802 C85.9532653,323.809703 86.2922818,320.162647 87.0100638,317.392042 C87.4942792,315.515954 87.8171989,313.659247 88.0284272,311.919488 C88.0392679,311.833749 88.0494515,311.74998 88.0599636,311.666211 C88.0967561,311.342963 88.1315776,311.023 88.1614715,310.70895 C88.6279476,305.851028 88.2610083,302.153054 88.238013,301.936241 L88.2472111,301.953981 C88.3953666,302.2769 89.4646482,306.1953 90.8653907,311.032198 C93.2339069,319.208671 96.5495012,330.012522 97.9627269,330.53123 C100.016864,331.287775 133.294682,341.143234 140.481043,342.153056 C141.312816,342.269675 141.794732,342.268033 141.840066,342.121191 C141.873573,342.016398 141.906423,341.908321 141.939931,341.796301 C142.813095,338.917617 144.013122,334.025202 144.205297,333.235478 C144.224679,333.164192 144.23322,333.125429 144.23322,333.125429 L142.945811,332.739436 L106.737078,321.888609 L90.1840727,274.155615 C89.8381576,273.879343 85.7735735,271.910945 82.8038943,270.499362 C79.7767268,269.058213 76.1260581,266.941331 72.8213045,265.12963 C71.1354202,264.207518 69.5405317,263.365562 68.162456,262.733191 L67.9508992,262.637268 L67.9492567,262.635297 C65.6697651,261.592624 64.1553601,260.902765 64.1553601,260.902765 L64.148133,260.902765 C64.0939298,260.897509 63.7358601,260.862359 63.1580209,260.808484 C59.978756,260.50626 50.098988,259.580535 46.7886498,259.386389 C46.5159912,259.368978 46.2873522,259.358466 46.1109454,259.354852 C45.9588479,259.350133 45.8471564,259.348282 45.777185,259.35321 C45.3580135,259.377519 43.3232576,260.088731 40.6449617,261.107094 L40.6433192,261.107094 C40.5421399,261.145529 40.440632,261.183636 40.3378102,261.224042 C40.211993,261.271347 40.0861759,261.318651 39.9587162,261.36727 C39.7261351,261.456295 39.4905975,261.546962 39.2511178,261.639928 C38.772487,261.826847 38.280059,262.018694 37.7807324,262.216125 C37.6092532,262.284454 37.4344889,262.352454 37.2584105,262.422426 C31.9024758,264.548506 25.7660148,267.175227 24.3074556,268.223484 C23.3449379,268.913343 20.3437223,274.569531 16.8645328,281.563716 C12.3837337,295.917056 6.70520772,317.888083 6.52880089,323.306762 C6.52682987,323.392502 6.52518735,323.474628 6.52518735,323.551498"/>
        <path fill="#495055" d="M84.5029515,355.812267 C84.5029515,355.812267 85.6050836,357.130883 85.9237328,362.713157 C85.9237328,362.713157 40.6121442,357.426865 35.8218939,355.343819 C35.8218939,355.343819 35.634318,349.191919 36.6507104,349.084826 C37.7666396,348.96755 84.5029515,355.812267 84.5029515,355.812267"/>
        <path fill="#FFCAB0" d="M45.861972,257.815645 C46.0029003,264.926779 59.7718311,268.817255 59.7718311,268.817255 C59.7718311,268.817255 65.5314976,261.597059 64.1557215,260.905228 C63.6153318,260.633884 63.3958909,259.556061 63.3285475,258.347494 C63.2661317,257.197072 63.3397167,255.928059 63.4070601,255.122238 C63.4477946,254.619298 63.4865581,254.295721 63.4865581,254.295721 C63.4865581,254.295721 61.5194742,252.219902 59.0165996,249.746922 C54.6432214,245.422819 48.630935,239.882922 48.6214084,242.086858 C48.6207514,242.203477 48.6368481,242.343091 48.6723266,242.504715 C49.7287965,247.464145 45.861972,257.815645 45.861972,257.815645"/>
        <path fill="#353A3D" d="M47.0040501 350.175428C47.0040501 350.175428 46.0149236 356.412083 45.9295125 358.037851L43.8333263 357.619665C43.8333263 357.619665 44.4105084 351.020998 44.7501819 349.915252L47.0040501 350.175428zM80.722885 355.084695C80.722885 355.084695 81.5172085 360.753695 81.5362617 362.894557L79.318529 362.606459C79.318529 362.606459 78.8642075 355.527191 78.6106021 354.788056L80.722885 355.084695z"/>
        <path fill="#F1B89B" d="M51.1648861,247.39621 L51.1658716,247.397196 C51.1931374,247.438587 51.7768896,248.312409 52.7735718,249.56631 C54.8874972,252.225224 58.8614142,256.593018 63.3284161,258.347559 C63.2663288,257.197137 63.3399138,255.928125 63.4072572,255.122304 C63.8638782,255.110478 64.3211562,255.057589 64.7744922,254.957723 C63.5494995,252.817846 61.7805037,250.573833 61.7805037,250.573833 L59.0164682,249.746987 L51.1648861,247.39621 Z"/>
        <path fill="#FFCAB0" d="M48.521773,242.183142 C49.7132583,244.774056 50.8436417,246.652115 51.1649189,247.396178 L51.1659044,247.397492 C51.3745047,247.882035 51.9434742,248.672088 52.7736046,249.566606 C55.0429126,252.011006 59.2605798,255.235277 63.40729,255.122271 C63.863911,255.110773 64.3211891,255.057556 64.7745251,254.95769 C66.4485832,254.591408 68.4255223,253.813838 69.5132001,251.683816 C78.10326,234.865708 71.8840159,221.113203 71.8840159,221.113203 C71.8840159,221.113203 48.3966129,214.471173 44.7216349,221.541901 C42.1428758,226.501331 45.7232446,236.094971 48.521773,242.183142"/>
        <path fill="#252E3B" d="M71.8840816,221.113137 C71.8840816,221.113137 74.0656789,220.992247 74.6047545,216.856706 C75.1375886,212.770769 74.0600943,211.638415 74.0600943,211.638415 C74.0600943,211.638415 64.3636318,207.579415 60.8818144,207.051509 C57.3993399,206.523602 48.8372029,206.01672 46.8300414,208.31198 C46.8300414,208.31198 41.9540515,207.17864 40.62558,215.273972 C38.5178962,228.116192 47.8073418,240.586545 47.8073418,240.586545 C47.8073418,240.586545 47.7281722,232.196545 49.5783087,231.084886 C51.4281166,229.973227 53.0256332,232.61703 53.0256332,232.61703 L56.8103316,233.295063 C56.8103316,233.295063 51.0618343,220.882198 57.9574688,220.422621 C64.8534318,219.962715 67.936445,221.83289 71.8840816,221.113137"/>
        <path fill="#FFCAB0" d="M52.9216287,229.27233 C52.5612594,225.576328 45.8771817,224.164745 46.3249331,228.039125 C46.7726845,231.913177 50.064298,235.635459 51.5849446,235.504386 C53.1059196,235.373313 53.1959298,232.089584 52.9216287,229.27233"/>
        <path fill="#3C4145" d="M31.6124722,327.567332 C31.6124722,330.264024 30.7356941,333.352294 29.3871838,336.643579 C29.3520339,336.725705 29.3191834,336.809473 29.2840335,336.891599 C28.3546947,334.908747 27.4795592,333.009992 26.6950908,331.25118 C26.6934483,331.247566 26.6918058,331.245595 26.6918058,331.242639 C24.5345178,326.413954 23.0532917,322.64798 22.9711656,321.157884 C22.4383316,311.584282 29.4903342,300.563619 29.4903342,300.563619 C29.4903342,300.568546 29.4919767,300.574131 29.4936192,300.579387 C29.4955903,300.582672 29.4975613,300.587928 29.4975613,300.593184 C29.5024889,300.610595 29.5077449,300.628006 29.5113585,300.645416 C29.5218706,300.680566 29.5320542,300.715388 29.5405954,300.75218 C29.5478225,300.773205 29.5530785,300.795871 29.5583346,300.818538 C29.5635907,300.835949 29.5688467,300.851717 29.5721318,300.869456 C31.0168938,306.560466 31.6124722,327.567332 31.6124722,327.567332 M9.58724197,330.267966 C12.4991044,335.822318 17.0932375,343.995834 21.6295539,351.921001 C21.032333,353.035288 20.4489093,354.141034 19.889795,355.232982 C18.5255165,357.90208 17.3153065,360.485438 16.4556106,362.894032 C15.421479,365.790126 13.983944,373.209068 16.7351678,374.587472 L31.2300932,382.587538 C31.2300932,382.587538 31.3312725,382.304696 31.5234475,381.780403 C32.0037209,380.478869 33.0447511,377.694795 34.4858996,374.087488 C34.5332043,373.970541 34.6780747,373.626597 34.8929165,373.120043 C35.1810148,372.440368 35.5969013,371.469309 36.0719186,370.360278 C36.2854464,369.863908 36.5088293,369.339944 36.7410819,368.801854 C37.0028999,368.186894 37.2755585,367.553209 37.546246,366.92248 C37.9411083,366.003654 38.3343279,365.090083 38.6973252,364.244184 C39.6861233,361.942355 40.458437,360.150035 40.458437,360.150035 C40.5070556,360.043271 40.5563313,359.938807 40.6049499,359.832043 C41.0766821,358.812037 41.560569,357.788417 42.052997,356.768411 C42.8147986,355.18732 43.5989384,353.613456 44.4008175,352.074741 C44.4813011,351.917388 44.5614561,351.761677 44.6435822,351.606623 C44.7868101,351.335935 44.930038,351.064919 45.0732659,350.797845 C45.1622906,350.633593 45.2516438,350.469341 45.3406684,350.307059 C45.3600502,350.269939 45.380746,350.233475 45.4001277,350.197011 C45.4365917,350.131967 45.4714132,350.067251 45.5082056,350.002864 C49.6989355,342.358897 54.4188858,335.967517 55.9244211,326.594302 C56.0692916,325.689273 56.2072634,324.789828 56.3386651,323.897282 C56.556792,322.408829 56.7575081,320.939757 56.9411421,319.500251 C57.0091425,318.955591 57.0774714,318.417173 57.1418582,317.883024 C57.8964327,311.629287 58.3471406,306.057197 58.7104664,302.175918 C59.8441349,290.084331 52.4380046,276.992119 46.7519231,268.90467 C43.7109584,264.579911 41.1640643,261.685131 40.6729503,261.136528 C40.6607957,261.126016 40.6522545,261.115833 40.6433849,261.106963 C40.5422056,261.145727 40.4406977,261.183833 40.3378759,261.223911 C40.2120587,261.271215 40.0862416,261.31852 39.9587819,261.367138 C39.7262008,261.456163 39.4903347,261.54683 39.2511835,261.640126 C38.7725527,261.826716 38.2801247,262.018891 37.7804696,262.215994 C37.6093189,262.284323 37.4345546,262.352323 37.2584762,262.422294 C31.7524151,264.581553 20.1571975,267.771002 18.6983097,268.817288 C17.8566816,269.419765 15.9723808,274.937653 13.797682,281.907201 C9.3172114,296.260541 6.6579688,317.902078 6.52886659,323.306631 C6.52689557,323.392371 6.52525305,323.474497 6.52525305,323.551367 C6.52525305,324.176511 7.70425511,326.674458 9.58724197,330.267966"/>
        <path fill="#B3A5A0" d="M59.1449134,363.64151 L17.8285945,382.031183 C15.4909576,383.071556 12.7525455,382.020343 11.7125008,379.683034 L0.401439459,354.270924 C-0.638933774,351.933616 0.412608607,349.195532 2.74991696,348.15483 L44.0665644,329.765158 C46.4035442,328.724456 49.1419564,329.775998 50.1823296,332.113307 L61.4930624,357.525745 C62.5334356,359.862725 61.4818933,362.601137 59.1449134,363.64151"/>
        <path fill="#3C4145" d="M68.0539839,262.818931 C68.0539839,262.818931 69.9911739,269.26977 72.497662,285.371739 C72.497662,285.373381 72.497662,285.375352 72.499633,285.376995 C72.5853727,285.91837 72.6691413,286.468615 72.7548809,287.031014 C72.763422,287.095729 72.7739342,287.162087 72.7841178,287.226803 C72.840292,287.598998 72.8977803,287.976121 72.953626,288.358829 C72.9608531,288.404162 72.9677517,288.449167 72.9746503,288.493187 C73.0134138,288.750077 73.0518488,289.00861 73.0883128,289.270428 C73.1825936,289.906413 73.2768743,290.554552 73.3714836,291.214517 C74.4893838,299.05263 76.0576635,312.390892 77.5651699,325.856942 L77.5651699,325.862198 C78.7566551,336.475844 81.471415,347.367077 82.3340674,355.494603 C82.3340674,355.500187 82.3360384,355.505115 82.3360384,355.5107 C82.5068606,357.103617 82.9138775,359.226084 83.4641223,361.62088 C83.5255526,361.891568 83.5899394,362.165869 83.6546548,362.443455 C86.0829589,372.702646 90.7969961,387.223523 90.7969961,387.223523 L92.1701442,385.955496 L96.2366994,382.201677 C97.1732652,381.338696 97.5277214,380.014495 97.1502699,378.800672 C94.8950877,371.525286 87.2304245,345.777445 85.8260685,327.673899 C85.8244259,327.668315 85.8244259,327.663387 85.8244259,327.657802 C86.5139565,321.296644 88.2750683,312.761445 88.0112793,311.533496 C88.02869,311.577187 88.0444582,311.620878 88.0598979,311.666211 C88.8670331,313.910553 89.7612219,316.351012 90.6626378,318.726427 L90.6626378,318.728398 C93.0820722,325.107623 95.5573524,331.01873 96.5878705,331.396182 C98.8814878,332.239781 140.077574,344.393784 140.376185,342.697716 C140.406078,342.526894 140.441228,342.344903 140.481306,342.153056 C140.51777,341.964166 140.559818,341.764764 140.60351,341.557149 C141.112034,339.235609 142.035788,335.906218 142.680642,333.658263 C142.776566,333.326473 142.86559,333.017022 142.946074,332.739436 C143.216762,331.808455 143.393168,331.218132 143.393168,331.218132 L108.555283,319.783553 L90.9770165,273.814956 C90.6314299,273.540984 86.1453747,271.126477 83.176024,269.713251 C80.0841412,268.240895 76.171326,266.424594 72.7006777,264.822478 C71.0430448,264.055749 69.4813352,263.33961 68.1623903,262.733191 L68.0539839,262.818931 Z"/>
        <path fill="#51565C" d="M44.4664855 278.755234L51.1650175 282.532706 48.3030877 285.451467 55.9234028 326.594992C57.4768998 316.951091 58.1844981 307.793047 58.7104336 302.176608 60.4626757 283.484054 41.8049434 262.397361 40.6443376 261.10601 39.7485063 261.446012 38.7800755 261.821493 37.7801083 262.216684L44.4664855 278.755234zM67.9507021 262.637662C67.9507021 262.637662 70.4532481 270.811507 73.3703666 291.214254 74.4885954 299.052368 76.0578606 312.391943 77.5663525 325.856022L79.1254341 287.323777 75.934343 283.866926 78.7709779 280.321379 72.7008748 264.822216C71.0429134 264.055487 69.4818608 263.339019 68.1619304 262.732928L67.9507021 262.637662z"/>
        <path fill="#F5E2D9" d="M40.2703354 261.248253L45.8618077 257.815711C45.8618077 257.815711 46.0175188 260.861275 59.7716668 268.817321L55.8657503 279.818603 40.2703354 261.248253zM63.4305481 259.350385C63.4305481 259.350385 63.2140638 262.637728 59.7716668 268.817223L67.3949385 278.755136 67.9507678 262.637728 63.4305481 259.350385z"/>
        <path fill="#FAA146" d="M59.7512339,268.817321 C59.7512339,268.817321 58.2739499,274.726786 58.8054699,276.381133 C58.8054699,276.381133 62.0543778,277.563421 64.3893866,276.085808 C64.3893866,276.085808 62.7353673,271.949281 59.7512339,268.817321"/>
        <path fill="#AD9F99" d="M67.3883027,354.045275 C68.2151481,349.875898 67.4283802,337.381564 67.3945443,336.852015 L66.6866174,336.897348 C66.69483,337.025793 67.5016367,349.828264 66.692859,353.907303 L67.3883027,354.045275 Z"/>
        <path fill="#69737A" d="M61.6038669,352.122703 C61.6038669,352.122703 68.2711909,352.918997 70.4757835,353.468914 L70.1870282,360.942059 L61.45604,360.010421 L61.6038669,352.122703 Z"/>
        <path fill="#FAA146" d="M63.0629189,275.553927 C63.0629189,275.553927 70.4989431,294.332877 69.2861051,315.35157 C68.0285905,337.144876 65.9659117,345.04672 65.9659117,345.04672 L61.3806482,350.796859 L59.3590325,343.729417 C59.3590325,343.729417 65.5115902,315.945177 61.5396443,288.909271 C60.8198913,284.009957 59.7512667,274.726753 59.7512667,274.726753 L63.0629189,275.553927 Z"/>
        <path fill="#EEA886" d="M40.7181854,364.23791 C40.7181854,364.23791 42.3137309,367.42933 43.909605,367.96085 C45.504822,368.492698 47.8319468,371.085583 47.8319468,371.085583 L36.5964415,377.002275 C36.5964415,377.002275 33.605081,371.151941 33.4717082,367.42933 C33.3386639,363.706062 40.7181854,364.23791 40.7181854,364.23791"/>
        <path fill="#DECBC4" d="M41.7848718,364.53721 L42.5292626,366.033219 C42.5292626,366.033219 35.3934914,371.25151 33.4700985,371.584285 L32.8098048,369.589607 L41.7848718,364.53721 Z"/>
        <path fill="#3C4145" d="M42.5291312,364.602648 C42.5291312,364.602648 37.1817376,369.024645 32.6763007,371.063343 L12.4893807,335.666672 L25.3736493,328.621897 C25.3736493,328.621897 42.1743465,361.943406 42.5291312,364.602648"/>
        <path fill="#2D3133" d="M87.7998539,302.008151 C88.0478747,307.05135 88.0114107,311.529521 88.0114107,311.529521 L88.0114107,311.533463 C88.0127247,311.557772 88.0179808,311.693773 88.0284929,311.919455 C88.0393336,311.833716 88.0495172,311.749947 88.0600293,311.666178 C88.8671645,313.91052 89.7613533,316.350979 90.6627692,318.726722 C90.8726835,315.973856 90.9265582,313.40758 90.8654564,311.032165 C90.5037731,296.892024 86.0564814,289.476696 86.0564814,289.476696 C87.0768159,291.941136 87.5656303,297.228741 87.7998539,302.008151"/>
        <path fill="#EEA886" d="M263.214764,255.392597 C263.214764,255.392597 263.004192,252.794128 263.310358,251.580961 C263.838265,249.486746 263.060038,246.09461 265.693986,244.449461 C268.327605,242.804311 275.900944,249.695018 276.496851,251.620053 C277.092101,253.544432 274.260722,256.82619 268.33976,259.58267 C262.418469,262.33915 263.214764,255.392597 263.214764,255.392597"/>
        <path fill="#EEA886" d="M264.888066,245.13183 C264.888066,245.13183 267.444816,241.284716 270.819869,237.353833 C273.780679,233.905851 277.937244,230.038041 278.814351,230.772577 C280.146107,231.887849 276.375206,234.66831 273.671615,238.285471 C271.182866,241.61552 272.238351,241.379325 272.238351,241.379325 C272.238351,241.379325 271.934156,241.430243 275.360785,238.332776 C279.045289,235.002727 283.141738,231.579712 283.871675,232.167735 C284.776047,232.896029 284.827294,233.063238 283.69034,234.492232 C284.52277,233.812228 284.829594,233.944943 285.150214,234.266878 C286.808832,235.93338 282.168708,241.674979 280.325142,243.95447 C281.752165,242.212083 282.988655,241.087285 283.344754,242.762985 C283.752099,244.679808 276.820001,252.498868 274.609824,255.539504 C272.19893,258.856741 264.888066,245.13183 264.888066,245.13183"/>
        <path fill="#181929" d="M176.310617,521.40989 C176.310617,521.40989 183.517017,525.67092 186.779722,527.253982 C190.042427,528.837373 202.721052,529.291366 203.973639,530.481866 C205.225897,531.672037 204.767305,535.461663 202.666191,535.848641 C200.564749,536.235619 185.155925,537.629135 180.013846,536.426809 C174.872096,535.224811 165.257103,537.24807 163.127081,536.524703 C160.997716,535.801336 162.371192,524.321424 163.194096,521.744964 C164.017656,519.168176 176.310617,521.40989 176.310617,521.40989"/>
        <path fill="#22243B" d="M176.910499,516.716516 L176.31065,521.409857 C176.31065,521.409857 166.676275,523.211375 163.756857,521.727521 L164.479895,516.850545 L176.910499,516.716516 Z"/>
        <path fill="#292C47" d="M215.561103,356.385572 C215.45861,359.636123 214.866317,366.688782 214.176786,374.094584 C214.023046,375.740062 213.861422,377.404265 213.702754,379.047115 C212.741551,389.013937 211.771806,398.232426 211.771806,398.232426 C210.554697,406.165805 208.044596,419.940649 205.238512,430.354565 L205.238512,430.357193 C204.428091,433.362351 203.59599,436.087951 202.760932,438.312583 C201.947884,440.477426 201.131879,442.168895 200.340184,443.181346 C194.369617,450.807902 180.680841,518.42165 180.680841,518.42165 L161.994529,518.278751 C161.994529,518.278751 166.10379,472.494773 170.234732,460.890686 C174.842662,447.92889 182.84897,430.462315 180.861519,417.961082 C179.617473,410.116399 178.012072,385.146784 178.012072,385.146784 C178.012072,385.146784 176.450363,357.088572 183.788821,336.537997 C185.619904,331.402489 215.561103,356.385572 215.561103,356.385572"/>
        <path fill="#181929" d="M228.823185,523.166304 C228.823185,523.166304 235.978009,527.512745 239.221333,529.135556 C242.464984,530.757711 255.137039,531.36413 256.375172,532.569412 C257.613633,533.774366 257.109051,537.558408 255.003338,537.919762 C252.897625,538.281774 237.473033,539.490013 232.346065,538.226585 C227.21877,536.962501 217.580124,538.870782 215.4593,538.121464 C213.338476,537.372474 214.849924,525.910301 215.703707,523.343696 C216.557818,520.777421 228.823185,523.166304 228.823185,523.166304"/>
        <path fill="#22243B" d="M229.479537,518.480617 L228.823185,523.166403 C228.823185,523.166403 219.168114,524.852287 216.266435,523.333283 L217.048275,518.465177 L229.479537,518.480617 Z"/>
        <path fill="#292C47" d="M207.142523,451.432718 C206.656336,436.478872 205.33542,426.543586 201.487321,417.904579 C198.255495,410.64989 195.490145,387.865814 195.490145,387.865814 C195.490145,387.865814 186.73222,361.16761 188.507129,339.416024 C188.951595,333.984205 222.802653,347.640458 222.802653,347.640458 C223.54343,350.807569 225.808139,360.774062 226.610675,368.166395 C231.194296,410.401212 229.478847,437.91575 229.478847,437.91575 C226.860996,447.241659 233.475102,520.615731 233.475102,520.615731 L214.422179,520.615731 C214.422179,520.615731 209.426613,494.513433 208.901664,478.280063 C208.901664,478.280063 206.95429,454.018375 207.142523,451.432718"/>
        <path fill="#CFBEB6" d="M206.717471,257.931476 C206.717471,257.931476 215.594644,272.485532 218.190156,280.605831 C220.785669,288.726458 218.694739,312.338693 219.152674,317.084266 C220.573784,331.808159 222.646318,348.017549 222.646318,348.017549 L192.88711,367.026452 C192.88711,367.026452 187.546286,354.549529 182.888095,339.014559 C178.230232,323.47926 177.855737,309.492859 177.898771,300.14724 C178.035429,270.831841 193.881493,254.278508 193.881493,254.278508 L206.717471,257.931476 Z"/>
        <path fill="#FFCAB0" d="M217.654662,218.896061 C217.654662,218.896061 223.756301,225.426727 222.032967,227.143819 C220.60923,228.56263 226.219098,235.070958 227.017035,236.165206 C227.814972,237.259782 224.525658,239.070826 223.984283,240.052069 C223.442579,241.03364 223.761557,251.276734 220.937405,252.32959 C218.113582,253.382446 203.851238,252.268817 199.321163,249.503467 C194.791088,246.737789 187.482852,230.79186 188.007145,223.118656 C188.531767,215.44578 206.922425,207.507473 217.654662,218.896061"/>
        <path fill="#FFCAB0" d="M211.883694,250.116653 C211.883694,250.116653 211.77923,250.98719 211.639944,252.336029 C211.587712,252.902042 211.518069,253.545582 211.456967,254.251209 C211.422474,254.668409 211.387324,255.112547 211.343633,255.565226 C211.335421,255.686773 211.317682,255.808648 211.30914,255.930852 C211.29173,256.139452 211.274647,256.348709 211.256908,256.566179 C211.187265,257.549392 211.117622,258.568084 211.06539,259.577578 C210.934974,262.17999 210.917563,264.669067 211.195806,266.053056 C211.944796,269.847609 195.599078,253.833023 195.599078,253.833023 C195.599078,253.833023 196.983066,241.412931 196.312917,227.452482 C195.633899,213.491705 211.883694,250.116653 211.883694,250.116653"/>
        <path fill="#3A3F47" d="M218.906756,220.329588 C218.906756,220.329588 221.792666,213.519693 212.890527,208.792188 C202.409925,203.226667 191.297937,217.200256 189.823938,218.023159 C188.349611,218.846063 181.64878,226.386223 188.206055,236.382281 C196.480093,248.995534 196.04384,248.57242 196.04384,248.57242 C196.04384,248.57242 196.87397,239.268192 196.819438,237.472916 C196.72023,234.191486 205.328029,233.802208 205.328029,233.802208 C205.328029,233.802208 201.792994,229.096712 205.722891,226.9864 C209.652789,224.876088 214.248893,219.868697 218.906756,220.329588"/>
        <path fill="#FFCAB0" d="M200.808236,232.611117 C200.181779,231.730726 197.882577,227.843862 194.925381,231.257351 C191.968185,234.670839 199.897951,241.053022 200.553646,240.989949 C201.209012,240.927204 206.081388,240.019218 200.808236,232.611117"/>
        <path fill="#23263D" d="M224.27064,354.289091 C224.27064,354.289091 222.7904,347.327098 222.503944,346.285739 L178.983033,353.527289 L179.428813,359.153254 C179.428813,359.153254 210.785537,357.275523 224.27064,354.289091"/>
        <path fill="#FAA146" d="M175.109506,323.617265 C175.109506,323.617265 181.795555,352.491482 171.32448,386.175331 C170.045941,390.28722 200.308089,385.535076 200.308089,385.535076 L175.109506,323.617265 Z"/>
        <path fill="#FAA146" d="M213.551905,383.420757 C213.551905,383.420757 192.056224,388.138407 186.018971,386.005757 C186.018971,386.005757 177.23378,354.04787 174.169491,321.610695 C173.932311,319.103221 173.730281,316.596076 173.568985,314.102399 L173.568985,314.097143 C171.858792,287.70839 178.575063,260.936601 193.879423,254.279789 C194.310421,254.570844 215.865233,273.575148 215.455916,290.969124 C215.426351,292.146155 215.410254,293.328442 215.402042,294.510729 C215.388573,296.648636 215.404998,298.792783 215.45066,300.931018 L215.453288,300.933646 C215.590603,307.55038 215.99992,314.151018 216.584329,320.560138 C216.64346,321.228316 216.708175,321.896165 216.77289,322.55843 C216.877683,323.635595 216.988389,324.704877 217.101395,325.768574 C217.254806,327.185085 217.413802,328.588127 217.581011,329.980328 C221.059872,359.011242 213.551905,383.420757 213.551905,383.420757"/>
        <path fill="#D44040" d="M212.668721,270.641769 C212.668721,270.641769 216.718194,286.673109 218.261508,306.843275 C219.553187,323.7192 221.277834,335.653434 221.277834,335.653434 L223.861521,344.007956 L224.924233,335.951059 C224.924233,335.951059 223.976169,314.171221 222.712413,305.311459 C221.438145,296.378769 220.881658,285.037814 213.740631,270.327718 L212.668721,270.641769 Z"/>
        <path fill="#D44040" d="M212.216699,270.653299 C212.216699,270.653299 212.704528,271.121089 213.395373,271.223583 C214.085889,271.326404 215.07403,270.222301 211.543922,265.561482 L212.216699,270.653299 Z"/>
        <path fill="#EDDAD3" d="M195.789249,251.86952 C195.789249,251.86952 205.798119,261.295623 211.754559,263.375384 L212.890527,272.404983 L193.881295,254.278442 L195.789249,251.86952 Z"/>
        <path fill="#FAA146" d="M202.508509,288.362705 C198.563829,286.96032 182.166864,279.001317 186.528087,269.7099 C190.888654,260.418484 202.131058,265.360831 210.592672,269.140602 C219.447178,273.095794 240.348267,285.248484 242.001958,284.116129 C243.655977,282.984104 250.8857,272.637859 252.192491,270.332087 C253.499281,268.026644 261.390284,253.28994 262.133689,252.179266 C262.86034,251.09356 274.323171,260.720379 274.323171,260.720379 C274.323171,260.720379 253.739746,297.275028 248.201491,303.095139 C242.663237,308.91525 202.508509,288.362705 202.508509,288.362705"/>
        <path fill="#181929" d="M205.238545,430.354532 L205.238545,430.35716 C204.428124,433.362318 203.596023,436.087919 202.760965,438.31255 L202.758337,438.309593 L196.241139,399.431434 C197.889246,403.118238 205.238545,430.354532 205.238545,430.354532"/>
        <path fill="#8F5C28" d="M215.450726,300.930887 L196.591292,285.526661 C201.586857,288.203972 213.864379,293.810555 215.402107,294.510598 C215.388639,296.648833 215.404735,298.792652 215.450726,300.930887"/>
        <path fill="#F1B89B" d="M211.639911,252.335963 C211.587679,252.901976 211.518036,253.545844 211.456935,254.251143 C211.422442,254.668672 211.387292,255.112482 211.343929,255.565161 C205.094791,255.147303 200.264135,250.16882 199.968481,249.864625 C202.50979,251.883284 211.639911,252.335963 211.639911,252.335963"/>
        <path fill="#F7BB26" d="M444.569689,279.517134 L422.072398,279.517134 C420.592157,268.745477 418.7729,256.448903 418.7729,256.448903 C418.7729,256.448903 417.863272,266.596402 416.757526,279.517134 L326.732227,279.517134 C325.911623,267.898593 324.92184,259.204397 324.565412,259.026019 C324.048018,258.767487 320.838202,269.075624 318.171732,279.517134 L293.801967,279.517134 C300.070487,252.516706 311.760642,209.198153 318.519619,206.603297 C328.140854,202.902696 367.375769,190.811437 367.375769,190.811437 L389.765968,190.811437 C389.765968,190.811437 429.553427,202.162576 433.254029,214.503827 C436.19677,224.339247 442.688016,256.77018 444.569689,279.517134"/>
        <path fill="#FFCAB0" d="M379.600237,118.17535 C379.600237,118.17535 400.507238,121.468935 397.323703,154.180083 C394.140496,186.89123 375.688078,184.209978 374.454545,184.176799 C373.221339,184.14362 355.930514,184.773035 354.58266,144.834791 C354.58266,144.834791 353.994309,115.302251 379.600237,118.17535"/>
        <path fill="#FFCAB0" d="M389.359148 174.542063C389.359148 174.542063 388.786236 187.996286 390.088099 190.908806 391.389962 193.821325 372.83538 203.177129 361.518405 192.751386 361.518405 192.751386 364.251561 178.12933 363.491731 172.947174 362.731572 167.76469 389.359148 174.542063 389.359148 174.542063M397.647148 144.94011C397.647148 144.94011 399.936823 142.494724 400.776152 144.970332 401.615809 147.445941 397.224691 158.507667 397.511476 159.004037 397.511476 159.004037 397.09329 159.963927 396.54403 159.435364 395.994443 158.9068 397.647148 144.94011 397.647148 144.94011M354.818691 144.526424C354.818691 144.526424 352.576977 142.037018 351.689687 144.496202 350.802068 146.955057 354.979001 158.099238 354.68269 158.590023 354.68269 158.590023 355.082151 159.558126 355.641923 159.040403 356.201365 158.522352 354.818691 144.526424 354.818691 144.526424"/>
        <path fill="#515151" d="M397.637194,149.957324 L394.644191,153.958835 C394.644191,153.958835 394.728617,145.186127 394.248672,143.810679 C393.768399,142.435231 393.033534,138.233004 392.632102,137.241906 C392.230341,136.251137 374.678026,131.332442 359.174593,138.678456 C359.174593,138.678456 359.856239,144.986396 358.370414,145.54781 C356.88426,146.109224 357.612883,155.821783 357.612883,155.821783 L355.152057,153.044936 C355.152057,153.044936 351.385098,127.878547 352.315093,125.25544 C353.245418,122.632333 356.209841,106.862154 388.017273,116.22387 C388.017273,116.22387 397.932848,114.123414 399.923256,120.969773 C401.913664,127.815803 397.637194,149.957324 397.637194,149.957324"/>
        <path fill="#FFCAB0" d="M390.088,190.908904 C390.088,190.908904 394.804666,191.915441 375.065497,210.832035 C375.065497,210.832035 361.064971,195.345027 361.518307,192.751485 C361.971971,190.157943 390.088,190.908904 390.088,190.908904"/>
        <polygon fill="#1E2630" points="375.065 210.832 380.453 220.044 396.432 192.912 389.512 188.085"/>
        <polygon fill="#1E2630" points="375.065 210.832 361.993 190.032 354.582 194.794 367.869 220.044"/>
        <path fill="#1E2630" d="M371.013593,268.46027 C371.174232,271.527843 371.245517,275.290532 371.254387,279.517069 L370.514267,279.517069 C370.505397,275.3086 370.434111,271.554452 370.273473,268.495748 C369.060963,245.418647 374.651779,217.33941 374.687586,210.758812 L375.409967,210.901382 C375.373831,217.481981 369.801084,245.481391 371.013593,268.46027"/>
        <path fill="#EAB196" d="M365.438316,180.326498 C365.438316,180.326498 370.404645,185.578626 377.421497,184.178212 C384.438021,182.777141 387.5529,179.565025 387.5529,179.565025 C387.5529,179.565025 384.783279,186.510921 376.671522,187.146577 C368.560093,187.782233 365.438316,180.326498 365.438316,180.326498"/>
      </g>
    </g>
    <line x1=".5" x2="712.5" y1="541.5" y2="541.5" stroke="#8995A3" stroke-linecap="round" stroke-linejoin="round" stroke-width="8"/>
  </g>
</svg>
